<?xml version="1.0" encoding="utf-8"?>
<!-- Generator: Adobe Illustrator 16.0.0, SVG Export Plug-In . SVG Version: 6.00 Build 0)  -->
<!DOCTYPE svg PUBLIC "-//W3C//DTD SVG 1.1//EN" "http://www.w3.org/Graphics/SVG/1.1/DTD/svg11.dtd">
<svg version="1.1" id="Layer_1" xmlns="http://www.w3.org/2000/svg" xmlns:xlink="http://www.w3.org/1999/xlink" x="0px" y="0px"
	 width="482px" height="484.666px" viewBox="0 0 482 484.666" enable-background="new 0 0 482 484.666" xml:space="preserve">
<circle fill="#EAEAEA" stroke="#1C1C1C" stroke-width="10" stroke-miterlimit="10" cx="241.667" cy="242.334" r="234.333"/>
<g>
	<polygon fill="#1C1C1C" points="400.667,357 124.667,357 125.83,353 400.26,353 	"/>
	<polygon fill="#1C1C1C" points="398.121,357 291.85,137.866 294.227,133.443 402.542,357 	"/>
	<polygon fill="#1C1C1C" points="234.704,244.401 294.227,133.443 296.381,137.889 238.229,246.292 	"/>
	<polygon fill="#1C1C1C" points="251.275,135.757 128.162,357 123.604,357 247.781,133.812 	"/>
	<polygon fill="#1C1C1C" points="250.337,137.443 124.667,137.443 124.667,133.443 252.583,133.443 	"/>
</g>
<g display="none">
	<g display="inline">
		<g>
			<path fill="#EFEFEF" d="M92.781,133.885c-2.667,0-5.333,0-8,0c-1.695,0-2.19,2.229-0.229,2.229c2.667,0,5.333,0,8,0
				C94.248,136.115,94.742,133.885,92.781,133.885L92.781,133.885z"/>
		</g>
	</g>
	<g display="inline">
		<g>
			<path fill="#EFEFEF" d="M73.677,133.965c-2.667,0-5.333,0-8,0c-1.637,0-2.24,2.069-0.271,2.069c2.667,0,5.333,0,8,0
				C75.043,136.035,75.646,133.965,73.677,133.965L73.677,133.965z"/>
		</g>
	</g>
	<g display="inline">
		<g>
			<path fill="#EFEFEF" d="M53.895,134.094c-2.667,0-5.333,0-8,0c-0.673,0-1.527,0.198-1.903,0.826
				c-0.35,0.583,0.295,0.985,0.821,0.985c2.667,0,5.333,0,8,0c0.673,0,1.527-0.198,1.903-0.826
				C55.066,134.496,54.421,134.094,53.895,134.094L53.895,134.094z"/>
		</g>
	</g>
	<g display="inline">
		<g>
			<path fill="#EFEFEF" d="M359.565,133.935c-2.666,0-5.333,0-8,0c-1.659,0-2.221,2.131-0.255,2.131c2.666,0,5.333,0,8,0
				C360.97,136.065,361.531,133.935,359.565,133.935L359.565,133.935z"/>
		</g>
	</g>
	<g display="inline">
		<g>
			<path fill="#EFEFEF" d="M341.258,134.43c-2.667,0-5.333,0-8,0c-0.69,0-1.454,0.19-2.049,0.549
				c-0.461,0.278-0.396,0.592,0.158,0.592c2.667,0,5.333,0,8,0c0.69,0,1.454-0.19,2.049-0.549
				C341.877,134.743,341.813,134.43,341.258,134.43L341.258,134.43z"/>
		</g>
	</g>
	<g display="inline">
		<g>
			<path fill="#EFEFEF" d="M320.692,134.188c-2.667,0-5.333,0-8,0c-0.652,0-1.517,0.218-1.914,0.787
				c-0.394,0.562,0.331,0.836,0.78,0.836c2.667,0,5.333,0,8,0c0.652,0,1.517-0.218,1.914-0.787
				C321.866,134.462,321.142,134.188,320.692,134.188L320.692,134.188z"/>
		</g>
	</g>
	<g display="inline">
		<g>
			<path fill="#EFEFEF" d="M418.382,134.428c-2.666,0-5.333,0-8,0c-0.69,0-1.454,0.189-2.049,0.549
				c-0.46,0.278-0.396,0.595,0.16,0.595c2.666,0,5.333,0,8,0c0.69,0,1.454-0.189,2.049-0.549
				C419.002,134.745,418.938,134.428,418.382,134.428L418.382,134.428z"/>
		</g>
	</g>
	<g display="inline">
		<g>
			<path fill="#EFEFEF" d="M437.003,134.184c-2.667,0-5.334,0-8,0c-0.653,0-1.517,0.217-1.914,0.789
				c-0.391,0.563,0.329,0.843,0.783,0.843c2.667,0,5.334,0,8,0c0.653,0,1.517-0.217,1.914-0.789
				C438.177,134.464,437.458,134.184,437.003,134.184L437.003,134.184z"/>
		</g>
	</g>
	<g display="inline">
		<g>
			<path fill="#EFEFEF" d="M398.924,134.356c-2.667,0-5.333,0-8,0c-0.851,0-3.157,1.287-1.223,1.287c2.667,0,5.333,0,8,0
				C398.552,135.644,400.859,134.356,398.924,134.356L398.924,134.356z"/>
		</g>
	</g>
	<g display="inline">
		<g>
			<path fill="#EFEFEF" d="M378.713,134.267c-2.667,0-5.334,0-8,0c-0.637,0-1.506,0.235-1.923,0.754
				c-0.432,0.537,0.366,0.711,0.747,0.711c2.667,0,5.334,0,8,0c0.637,0,1.506-0.235,1.923-0.754
				C379.892,134.442,379.094,134.267,378.713,134.267L378.713,134.267z"/>
		</g>
	</g>
	<g display="inline">
		<g>
			<path fill="#EFEFEF" d="M317.88,82.117c-1.257,2.352-2.515,4.704-3.771,7.055c-0.292,0.546,1.027,0.476,1.204,0.449
				c0.589-0.09,1.37-0.321,1.673-0.886c1.257-2.352,2.514-4.704,3.771-7.055c0.292-0.546-1.028-0.476-1.204-0.449
				C318.964,81.32,318.182,81.552,317.88,82.117L317.88,82.117z"/>
		</g>
	</g>
	<g display="inline">
		<g>
			<path fill="#EFEFEF" d="M308.927,98.63c-1.257,2.352-2.514,4.704-3.771,7.056c-0.749,1.402,2.188,1.327,2.754,0.27
				c1.257-2.352,2.514-4.704,3.771-7.056C312.43,97.497,309.492,97.573,308.927,98.63L308.927,98.63z"/>
		</g>
	</g>
	<g display="inline">
		<g>
			<path fill="#EFEFEF" d="M299.352,116.794c-1.258,2.352-2.515,4.704-3.771,7.055c-0.313,0.585,2.449,0.346,2.875-0.45
				c1.257-2.352,2.514-4.704,3.771-7.055C302.539,115.759,299.777,115.999,299.352,116.794L299.352,116.794z"/>
		</g>
	</g>
	<g display="inline">
		<g>
			<path fill="#EFEFEF" d="M336.293,47.582c-1.256,2.352-2.513,4.704-3.771,7.055c-0.653,1.222,2.252,0.897,2.698,0.062
				c1.257-2.351,2.515-4.703,3.771-7.055C339.646,46.421,336.74,46.747,336.293,47.582L336.293,47.582z"/>
		</g>
	</g>
	<g display="inline">
		<g>
			<path fill="#EFEFEF" d="M326.769,65.347c-1.258,2.352-2.515,4.704-3.771,7.056c-0.692,1.295,2.229,1.055,2.719,0.139
				c1.257-2.352,2.515-4.704,3.771-7.056C330.18,64.191,327.258,64.432,326.769,65.347L326.769,65.347z"/>
		</g>
	</g>
	<g display="inline">
		<g>
			<path fill="#EFEFEF" d="M279.223,74.785c-1.258,2.352-2.515,4.703-3.771,7.055c-0.682,1.274,2.236,1.006,2.713,0.115
				c1.257-2.352,2.514-4.703,3.771-7.055C282.616,73.626,279.699,73.894,279.223,74.785L279.223,74.785z"/>
		</g>
	</g>
	<g display="inline">
		<g>
			<path fill="#EFEFEF" d="M270.135,91.967c-1.257,2.352-2.514,4.704-3.771,7.056c-0.207,0.389,2.469,0.211,2.856-0.516
				c1.256-2.352,2.514-4.704,3.771-7.056C273.2,91.063,270.523,91.241,270.135,91.967L270.135,91.967z"/>
		</g>
	</g>
	<g display="inline">
		<g>
			<path fill="#EFEFEF" d="M260.68,109.41c-1.258,2.352-2.515,4.704-3.771,7.055c-0.725,1.354,2.208,1.199,2.738,0.209
				c1.258-2.352,2.515-4.704,3.771-7.055C264.141,108.264,261.208,108.419,260.68,109.41L260.68,109.41z"/>
		</g>
	</g>
	<g display="inline">
		<g>
			<path fill="#EFEFEF" d="M297.559,40.546c-1.257,2.352-2.513,4.704-3.771,7.055c-0.634,1.183,2.262,0.818,2.688,0.022
				c1.258-2.351,2.515-4.703,3.771-7.055C300.879,39.386,297.984,39.75,297.559,40.546L297.559,40.546z"/>
		</g>
	</g>
	<g display="inline">
		<g>
			<path fill="#EFEFEF" d="M288.043,58.348c-1.258,2.352-2.516,4.704-3.771,7.056c-0.633,1.188,2.263,0.827,2.689,0.027
				c1.257-2.353,2.514-4.705,3.771-7.056C291.368,57.188,288.471,57.548,288.043,58.348L288.043,58.348z"/>
		</g>
	</g>
	<g display="inline">
		<g>
			<path fill="#EFEFEF" d="M203.201,295.498c-1.256,2.353-2.514,4.703-3.771,7.055c-0.292,0.546,1.029,0.476,1.205,0.448
				c0.588-0.089,1.371-0.32,1.673-0.886c1.256-2.353,2.514-4.703,3.771-7.056c0.292-0.545-1.029-0.476-1.205-0.449
				C204.286,294.702,203.503,294.933,203.201,295.498L203.201,295.498z"/>
		</g>
	</g>
	<g display="inline">
		<g>
			<path fill="#EFEFEF" d="M194.249,312.013c-1.257,2.352-2.514,4.702-3.771,7.055c-0.75,1.401,2.189,1.326,2.754,0.27
				c1.257-2.352,2.514-4.703,3.771-7.055C197.752,310.879,194.813,310.955,194.249,312.013L194.249,312.013z"/>
		</g>
	</g>
	<g display="inline">
		<g>
			<path fill="#EFEFEF" d="M184.673,330.177c-1.257,2.352-2.514,4.703-3.771,7.055c-0.313,0.586,2.448,0.346,2.874-0.45
				c1.258-2.351,2.514-4.703,3.771-7.056C187.86,329.142,185.099,329.381,184.673,330.177L184.673,330.177z"/>
		</g>
	</g>
	<g display="inline">
		<g>
			<path fill="#EFEFEF" d="M221.615,260.963c-1.256,2.353-2.513,4.704-3.771,7.056c-0.654,1.222,2.251,0.896,2.698,0.062
				c1.258-2.351,2.514-4.703,3.771-7.056C224.967,259.802,222.062,260.128,221.615,260.963L221.615,260.963z"/>
		</g>
	</g>
	<g display="inline">
		<g>
			<path fill="#EFEFEF" d="M212.09,278.729c-1.258,2.352-2.515,4.703-3.771,7.056c-0.692,1.295,2.229,1.055,2.719,0.139
				c1.257-2.352,2.514-4.704,3.771-7.056C215.502,277.571,212.58,277.813,212.09,278.729L212.09,278.729z"/>
		</g>
	</g>
	<g display="inline">
		<g>
			<path fill="#EFEFEF" d="M151.735,397.324c-1.257,2.352-2.514,4.703-3.771,7.055c-0.292,0.546,1.028,0.477,1.205,0.448
				c0.588-0.089,1.371-0.32,1.673-0.886c1.256-2.353,2.513-4.703,3.771-7.056c0.292-0.546-1.029-0.476-1.205-0.447
				C152.82,396.527,152.038,396.759,151.735,397.324L151.735,397.324z"/>
		</g>
	</g>
	<g display="inline">
		<g>
			<path fill="#EFEFEF" d="M142.783,413.837c-1.257,2.353-2.514,4.704-3.771,7.056c-0.75,1.402,2.189,1.326,2.754,0.271
				c1.257-2.353,2.514-4.704,3.771-7.056C146.286,412.704,143.348,412.78,142.783,413.837L142.783,413.837z"/>
		</g>
	</g>
	<g display="inline">
		<g>
			<path fill="#EFEFEF" d="M133.207,432.002c-1.257,2.352-2.514,4.704-3.771,7.056c-0.313,0.585,2.448,0.346,2.874-0.45
				c1.258-2.353,2.515-4.703,3.771-7.057C136.394,430.966,133.632,431.206,133.207,432.002L133.207,432.002z"/>
		</g>
	</g>
	<g display="inline">
		<g>
			<path fill="#EFEFEF" d="M170.149,362.789c-1.257,2.353-2.513,4.704-3.771,7.055c-0.654,1.224,2.251,0.897,2.698,0.063
				c1.257-2.352,2.514-4.703,3.771-7.055C173.501,361.628,170.596,361.954,170.149,362.789L170.149,362.789z"/>
		</g>
	</g>
	<g display="inline">
		<g>
			<path fill="#EFEFEF" d="M160.625,380.554c-1.258,2.352-2.515,4.704-3.771,7.057c-0.692,1.296,2.229,1.056,2.719,0.14
				c1.257-2.353,2.514-4.704,3.771-7.058C164.036,379.397,161.114,379.638,160.625,380.554L160.625,380.554z"/>
		</g>
	</g>
	<g display="inline">
		<g>
			<path fill="#EFEFEF" d="M98.307,404.379c-1.257,2.353-2.514,4.703-3.771,7.055c-0.292,0.547,1.028,0.477,1.205,0.448
				c0.588-0.089,1.371-0.32,1.673-0.886c1.256-2.353,2.514-4.703,3.771-7.055c0.292-0.547-1.029-0.477-1.205-0.448
				C99.392,403.582,98.609,403.813,98.307,404.379L98.307,404.379z"/>
		</g>
	</g>
	<g display="inline">
		<g>
			<path fill="#EFEFEF" d="M89.354,420.892c-1.257,2.353-2.514,4.704-3.771,7.057c-0.75,1.401,2.189,1.326,2.754,0.27
				c1.257-2.352,2.514-4.704,3.771-7.056C92.858,419.759,89.919,419.835,89.354,420.892L89.354,420.892z"/>
		</g>
	</g>
	<g display="inline">
		<g>
			<path fill="#EFEFEF" d="M79.779,439.057c-1.257,2.353-2.514,4.704-3.771,7.057c-0.313,0.585,2.448,0.345,2.874-0.451
				c1.258-2.353,2.515-4.703,3.771-7.056C82.965,438.021,80.204,438.261,79.779,439.057L79.779,439.057z"/>
		</g>
	</g>
	<g display="inline">
		<g>
			<path fill="#EFEFEF" d="M116.721,369.844c-1.257,2.353-2.513,4.704-3.771,7.056c-0.654,1.223,2.251,0.896,2.698,0.063
				c1.257-2.352,2.514-4.703,3.771-7.055C120.073,368.683,117.167,369.009,116.721,369.844L116.721,369.844z"/>
		</g>
	</g>
	<g display="inline">
		<g>
			<path fill="#EFEFEF" d="M107.196,387.608c-1.258,2.352-2.515,4.703-3.771,7.057c-0.692,1.295,2.229,1.055,2.719,0.139
				c1.257-2.353,2.514-4.703,3.771-7.057C110.608,386.452,107.686,386.692,107.196,387.608L107.196,387.608z"/>
		</g>
	</g>
	<g display="inline">
		<g>
			<path fill="#EFEFEF" d="M38.669,353.935c-2.667,0-5.333,0-8,0c-1.66,0-2.221,2.131-0.255,2.131c2.667,0,5.333,0,8,0
				C40.074,356.065,40.635,353.935,38.669,353.935L38.669,353.935z"/>
		</g>
	</g>
	<g display="inline">
		<g>
			<path fill="#EFEFEF" d="M20.362,354.431c-2.667,0-5.333,0-8,0c-0.691,0-1.455,0.189-2.049,0.549
				c-0.46,0.277-0.396,0.592,0.159,0.592c2.667,0,5.333,0,8,0c0.691,0,1.455-0.19,2.049-0.549
				C20.981,354.743,20.916,354.431,20.362,354.431L20.362,354.431z"/>
		</g>
	</g>
	<g display="inline">
		<g>
			<path fill="#EFEFEF" d="M97.486,354.429c-2.667,0-5.333,0-8,0c-0.692,0-1.455,0.188-2.049,0.549
				c-0.46,0.278-0.396,0.596,0.16,0.596c2.667,0,5.333,0,8,0c0.692,0,1.455-0.189,2.049-0.549
				C98.106,354.744,98.042,354.429,97.486,354.429L97.486,354.429z"/>
		</g>
	</g>
	<g display="inline">
		<g>
			<path fill="#EFEFEF" d="M116.106,354.185c-2.667,0-5.333,0-8,0c-0.653,0-1.516,0.217-1.913,0.789
				c-0.391,0.563,0.329,0.844,0.783,0.844c2.667,0,5.333,0,8,0c0.653,0,1.516-0.217,1.913-0.789
				C117.281,354.464,116.561,354.185,116.106,354.185L116.106,354.185z"/>
		</g>
	</g>
	<g display="inline">
		<g>
			<path fill="#EFEFEF" d="M78.028,354.356c-2.667,0-5.333,0-8,0c-0.851,0-3.158,1.287-1.223,1.287c2.667,0,5.333,0,8,0
				C77.656,355.644,79.963,354.356,78.028,354.356L78.028,354.356z"/>
		</g>
	</g>
	<g display="inline">
		<g>
			<path fill="#EFEFEF" d="M57.816,354.269c-2.667,0-5.333,0-8,0c-0.636,0-1.505,0.233-1.922,0.754
				c-0.431,0.535,0.366,0.711,0.748,0.711c2.667,0,5.333,0,8,0c0.636,0,1.505-0.234,1.922-0.754
				C58.995,354.442,58.198,354.269,57.816,354.269L57.816,354.269z"/>
		</g>
	</g>
	<g display="inline">
		<g>
			<path fill="#EFEFEF" d="M436.793,353.935c-2.666,0-5.333,0-8,0c-1.659,0-2.22,2.131-0.254,2.131c2.666,0,5.333,0,8,0
				C438.199,356.065,438.759,353.935,436.793,353.935L436.793,353.935z"/>
		</g>
	</g>
	<g display="inline">
		<g>
			<path fill="#EFEFEF" d="M418.487,354.431c-2.667,0-5.333,0-8,0c-0.691,0-1.454,0.189-2.05,0.549
				c-0.461,0.277-0.396,0.592,0.158,0.592c2.667,0,5.333,0,8,0c0.691,0,1.454-0.19,2.049-0.549
				C419.106,354.743,419.042,354.431,418.487,354.431L418.487,354.431z"/>
		</g>
	</g>
	<g display="inline">
		<g>
			<path fill="#EFEFEF" d="M108.448,133.885c-2.667,0-5.333,0-8,0c-1.695,0-2.19,2.229-0.229,2.229c2.667,0,5.333,0,8,0
				C109.915,136.115,110.409,133.885,108.448,133.885L108.448,133.885z"/>
		</g>
	</g>
</g>
<path display="none" fill="#EFEFEF" d="M222,133.443"/>
<g>
	<g>
		<path fill="#1C1C1C" d="M117.127,134.378c-2.667,0-5.333,0-8,0c-1.66,0-2.221,2.131-0.255,2.131c2.667,0,5.333,0,8,0
			C118.532,136.509,119.093,134.378,117.127,134.378L117.127,134.378z"/>
	</g>
</g>
<g>
	<g>
		<path fill="#1C1C1C" d="M101.21,134.378c-2.667,0-5.333,0-8,0c-1.66,0-2.221,2.131-0.255,2.131c2.667,0,5.333,0,8,0
			C102.615,136.509,103.176,134.378,101.21,134.378L101.21,134.378z"/>
	</g>
</g>
<g>
	<g>
		<path fill="#1C1C1C" d="M86.127,134.378c-2.667,0-5.333,0-8,0c-1.66,0-2.221,2.131-0.255,2.131c2.667,0,5.333,0,8,0
			C87.532,136.509,88.093,134.378,86.127,134.378L86.127,134.378z"/>
	</g>
</g>
<g>
	<g>
		<path fill="#1C1C1C" d="M70.21,134.378c-2.667,0-5.333,0-8,0c-1.66,0-2.221,2.131-0.255,2.131c2.667,0,5.333,0,8,0
			C71.615,136.509,72.176,134.378,70.21,134.378L70.21,134.378z"/>
	</g>
</g>
<g>
	<g>
		<path fill="#1C1C1C" d="M55.044,134.378c-2.667,0-5.333,0-8,0c-1.66,0-2.221,2.131-0.255,2.131c2.667,0,5.333,0,8,0
			C56.449,136.509,57.01,134.378,55.044,134.378L55.044,134.378z"/>
	</g>
</g>
<g>
	<g>
		<path fill="#1C1C1C" d="M229.429,254.556c-1.279,2.34-2.558,4.68-3.838,7.021c-0.787,1.438,2.157,1.461,2.772,0.337
			c1.28-2.34,2.559-4.68,3.838-7.02C232.989,253.453,230.044,253.433,229.429,254.556L229.429,254.556z"/>
	</g>
</g>
<g>
	<g>
		<path fill="#1C1C1C" d="M221.794,268.524c-1.279,2.34-2.558,4.68-3.838,7.02c-0.787,1.439,2.157,1.461,2.772,0.337
			c1.279-2.339,2.558-4.68,3.838-7.021C225.354,267.421,222.409,267.399,221.794,268.524L221.794,268.524z"/>
	</g>
</g>
<g>
	<g>
		<path fill="#1C1C1C" d="M214.56,281.758c-1.278,2.341-2.558,4.681-3.837,7.021c-0.787,1.439,2.158,1.461,2.772,0.337
			c1.279-2.341,2.558-4.681,3.837-7.021C218.119,280.655,215.175,280.633,214.56,281.758L214.56,281.758z"/>
	</g>
</g>
<g>
	<g>
		<path fill="#1C1C1C" d="M206.925,295.726c-1.279,2.34-2.559,4.68-3.837,7.02c-0.787,1.439,2.158,1.462,2.772,0.338
			c1.278-2.341,2.558-4.68,3.837-7.02C210.485,294.623,207.54,294.603,206.925,295.726L206.925,295.726z"/>
	</g>
</g>
<g>
	<g>
		<path fill="#1C1C1C" d="M199.652,309.032c-1.279,2.34-2.558,4.681-3.838,7.02c-0.788,1.439,2.157,1.461,2.772,0.338
			c1.28-2.34,2.559-4.68,3.838-7.02C203.211,307.931,200.267,307.908,199.652,309.032L199.652,309.032z"/>
	</g>
</g>
<g>
	<g>
		<path fill="#1C1C1C" d="M190.239,324.844c-1.279,2.341-2.558,4.683-3.838,7.021c-0.788,1.438,2.157,1.462,2.772,0.338
			c1.28-2.341,2.559-4.681,3.838-7.021C193.798,323.741,190.854,323.72,190.239,324.844L190.239,324.844z"/>
	</g>
</g>
<g>
	<g>
		<path fill="#1C1C1C" d="M182.604,338.812c-1.279,2.342-2.557,4.682-3.838,7.021c-0.788,1.438,2.157,1.461,2.772,0.338
			c1.28-2.34,2.559-4.68,3.838-7.021C186.164,337.709,183.219,337.688,182.604,338.812L182.604,338.812z"/>
	</g>
</g>
<g>
	<g>
		<path fill="#1C1C1C" d="M167.735,366.015c-1.279,2.34-2.559,4.68-3.837,7.02c-0.787,1.439,2.158,1.462,2.772,0.338
			c1.278-2.341,2.558-4.682,3.837-7.02C171.295,364.911,168.35,364.89,167.735,366.015L167.735,366.015z"/>
	</g>
</g>
<g>
	<g>
		<path fill="#1C1C1C" d="M160.462,379.319c-1.279,2.341-2.558,4.682-3.838,7.021c-0.788,1.438,2.157,1.461,2.772,0.339
			c1.28-2.341,2.559-4.681,3.838-7.021C164.021,378.218,161.077,378.196,160.462,379.319L160.462,379.319z"/>
	</g>
</g>
<g>
	<g>
		<path fill="#1C1C1C" d="M153.044,393.002c-1.279,2.341-2.559,4.681-3.838,7.021c-0.787,1.439,2.158,1.462,2.772,0.338
			c1.279-2.342,2.558-4.681,3.838-7.021C156.604,391.899,153.659,391.878,153.044,393.002L153.044,393.002z"/>
	</g>
</g>
<g>
	<g>
		<path fill="#1C1C1C" d="M145.41,406.97c-1.279,2.34-2.558,4.682-3.838,7.021c-0.787,1.439,2.157,1.462,2.772,0.338
			c1.279-2.34,2.559-4.68,3.838-7.021C148.969,405.867,146.024,405.846,145.41,406.97L145.41,406.97z"/>
	</g>
</g>
<g>
	<g>
		<path fill="#1C1C1C" d="M138.175,420.204c-1.278,2.341-2.558,4.68-3.837,7.02c-0.787,1.44,2.158,1.462,2.772,0.339
			c1.279-2.342,2.558-4.681,3.837-7.021C141.734,419.102,138.79,419.08,138.175,420.204L138.175,420.204z"/>
	</g>
</g>
<g>
	<g>
		<path fill="#1C1C1C" d="M130.541,434.172c-1.279,2.34-2.559,4.68-3.837,7.021c-0.787,1.439,2.158,1.462,2.772,0.338
			c1.278-2.341,2.558-4.682,3.837-7.021C134.1,433.069,131.155,433.048,130.541,434.172L130.541,434.172z"/>
	</g>
</g>
<g>
	<g>
		<path fill="#1C1C1C" d="M120.335,362.435c-1.279,2.34-2.559,4.68-3.837,7.02c-0.787,1.439,2.158,1.462,2.772,0.338
			c1.278-2.341,2.558-4.682,3.837-7.02C123.895,361.331,120.95,361.31,120.335,362.435L120.335,362.435z"/>
	</g>
</g>
<g>
	<g>
		<path fill="#1C1C1C" d="M113.062,375.74c-1.279,2.34-2.558,4.681-3.838,7.02c-0.788,1.439,2.157,1.462,2.772,0.339
			c1.28-2.341,2.559-4.681,3.838-7.021C116.622,374.638,113.677,374.616,113.062,375.74L113.062,375.74z"/>
	</g>
</g>
<g>
	<g>
		<path fill="#1C1C1C" d="M105.645,389.422c-1.279,2.341-2.558,4.681-3.838,7.021c-0.787,1.439,2.158,1.462,2.772,0.338
			c1.279-2.341,2.558-4.681,3.838-7.021C109.204,388.319,106.259,388.298,105.645,389.422L105.645,389.422z"/>
	</g>
</g>
<g>
	<g>
		<path fill="#1C1C1C" d="M98.01,403.39c-1.279,2.341-2.558,4.682-3.838,7.021c-0.787,1.439,2.157,1.462,2.772,0.338
			c1.28-2.34,2.559-4.68,3.838-7.02C101.569,402.287,98.625,402.266,98.01,403.39L98.01,403.39z"/>
	</g>
</g>
<g>
	<g>
		<path fill="#1C1C1C" d="M376.211,132.746c-2.666,0-5.333,0-8,0c-1.659,0-2.22,2.131-0.254,2.131c2.666,0,5.333,0,8,0
			C377.617,134.877,378.177,132.746,376.211,132.746L376.211,132.746z"/>
	</g>
</g>
<g>
	<g>
		<path fill="#1C1C1C" d="M360.293,132.746c-2.666,0-5.333,0-8,0c-1.659,0-2.22,2.131-0.254,2.131c2.666,0,5.333,0,8,0
			C361.699,134.877,362.259,132.746,360.293,132.746L360.293,132.746z"/>
	</g>
</g>
<g>
	<g>
		<path fill="#1C1C1C" d="M345.211,132.746c-2.666,0-5.333,0-8,0c-1.659,0-2.22,2.131-0.254,2.131c2.666,0,5.333,0,8,0
			C346.617,134.877,347.177,132.746,345.211,132.746L345.211,132.746z"/>
	</g>
</g>
<g>
	<g>
		<path fill="#1C1C1C" d="M329.293,132.746c-2.666,0-5.333,0-8,0c-1.659,0-2.22,2.131-0.254,2.131c2.666,0,5.333,0,8,0
			C330.699,134.877,331.259,132.746,329.293,132.746L329.293,132.746z"/>
	</g>
</g>
<g>
	<g>
		<path fill="#1C1C1C" d="M314.127,132.746c-2.666,0-5.333,0-8,0c-1.659,0-2.22,2.131-0.254,2.131c2.666,0,5.333,0,8,0
			C315.533,134.877,316.093,132.746,314.127,132.746L314.127,132.746z"/>
	</g>
</g>
<g>
	<g>
		<path fill="#1C1C1C" d="M438.627,132.746c-2.666,0-5.333,0-8,0c-1.659,0-2.22,2.131-0.254,2.131c2.666,0,5.333,0,8,0
			C440.033,134.877,440.593,132.746,438.627,132.746L438.627,132.746z"/>
	</g>
</g>
<g>
	<g>
		<path fill="#1C1C1C" d="M423.545,132.746c-2.666,0-5.333,0-8,0c-1.659,0-2.22,2.131-0.254,2.131c2.666,0,5.333,0,8,0
			C424.951,134.877,425.511,132.746,423.545,132.746L423.545,132.746z"/>
	</g>
</g>
<g>
	<g>
		<path fill="#1C1C1C" d="M407.627,132.746c-2.666,0-5.333,0-8,0c-1.659,0-2.22,2.131-0.254,2.131c2.666,0,5.333,0,8,0
			C409.033,134.877,409.593,132.746,407.627,132.746L407.627,132.746z"/>
	</g>
</g>
<g>
	<g>
		<path fill="#1C1C1C" d="M392.461,132.746c-2.666,0-5.333,0-8,0c-1.659,0-2.22,2.131-0.254,2.131c2.666,0,5.333,0,8,0
			C393.867,134.877,394.427,132.746,392.461,132.746L392.461,132.746z"/>
	</g>
</g>
<g>
	<g>
		<path fill="#1C1C1C" d="M347.643,41.886c-1.278,2.34-2.559,4.68-3.838,7.021c-0.788,1.438,2.157,1.461,2.771,0.337
			c1.28-2.339,2.559-4.68,3.838-7.02C351.202,40.783,348.257,40.762,347.643,41.886L347.643,41.886z"/>
	</g>
</g>
<g>
	<g>
		<path fill="#1C1C1C" d="M340.409,55.12c-1.279,2.34-2.56,4.68-3.837,7.02c-0.787,1.44,2.156,1.461,2.771,0.337
			c1.279-2.34,2.56-4.68,3.837-7.02C343.967,54.017,341.023,53.996,340.409,55.12L340.409,55.12z"/>
	</g>
</g>
<g>
	<g>
		<path fill="#1C1C1C" d="M332.774,69.088c-1.279,2.34-2.56,4.679-3.838,7.02c-0.786,1.44,2.157,1.461,2.771,0.337
			c1.278-2.34,2.558-4.68,3.837-7.02C336.333,67.985,333.388,67.964,332.774,69.088L332.774,69.088z"/>
	</g>
</g>
<g>
	<g>
		<path fill="#1C1C1C" d="M325.5,82.395c-1.279,2.34-2.558,4.68-3.838,7.02c-0.788,1.439,2.156,1.461,2.771,0.337
			c1.28-2.339,2.56-4.68,3.839-7.02C329.059,81.292,326.115,81.271,325.5,82.395L325.5,82.395z"/>
	</g>
</g>
<g>
	<g>
		<path fill="#1C1C1C" d="M316.087,98.207c-1.279,2.34-2.558,4.681-3.838,7.021c-0.788,1.439,2.157,1.461,2.771,0.337
			c1.28-2.34,2.56-4.68,3.839-7.021C319.646,97.104,316.702,97.082,316.087,98.207L316.087,98.207z"/>
	</g>
</g>
<g>
	<g>
		<path fill="#1C1C1C" d="M308.453,112.174c-1.279,2.34-2.559,4.68-3.838,7.02c-0.788,1.439,2.156,1.461,2.771,0.337
			c1.281-2.339,2.56-4.68,3.838-7.021C312.011,111.071,309.067,111.05,308.453,112.174L308.453,112.174z"/>
	</g>
</g>
<g>
	<g>
		<path fill="#1C1C1C" d="M307.983,30.47c-1.279,2.34-2.559,4.681-3.839,7.021c-0.787,1.439,2.156,1.461,2.771,0.337
			c1.281-2.339,2.559-4.68,3.838-7.02C311.542,29.367,308.597,29.346,307.983,30.47L307.983,30.47z"/>
	</g>
</g>
<g>
	<g>
		<path fill="#1C1C1C" d="M300.348,44.438c-1.279,2.34-2.558,4.68-3.838,7.02c-0.787,1.439,2.156,1.461,2.771,0.337
			c1.281-2.339,2.559-4.68,3.838-7.02C303.907,43.335,300.962,43.314,300.348,44.438L300.348,44.438z"/>
	</g>
</g>
<g>
	<g>
		<path fill="#1C1C1C" d="M293.114,57.672c-1.278,2.34-2.558,4.68-3.837,7.02c-0.786,1.44,2.158,1.461,2.771,0.337
			c1.279-2.34,2.559-4.68,3.836-7.02C296.672,56.568,293.729,56.547,293.114,57.672L293.114,57.672z"/>
	</g>
</g>
<g>
	<g>
		<path fill="#1C1C1C" d="M285.479,71.64c-1.278,2.34-2.558,4.679-3.836,7.02c-0.787,1.44,2.157,1.461,2.771,0.337
			c1.277-2.34,2.559-4.68,3.836-7.02C289.038,70.537,286.093,70.516,285.479,71.64L285.479,71.64z"/>
	</g>
</g>
<g>
	<g>
		<path fill="#1C1C1C" d="M278.206,84.947c-1.279,2.34-2.558,4.681-3.838,7.02c-0.788,1.439,2.155,1.46,2.771,0.337
			c1.281-2.339,2.559-4.68,3.838-7.02C281.764,83.844,278.82,83.822,278.206,84.947L278.206,84.947z"/>
	</g>
</g>
<g>
	<g>
		<path fill="#1C1C1C" d="M268.793,100.758c-1.279,2.34-2.559,4.681-3.838,7.021c-0.788,1.439,2.156,1.461,2.771,0.337
			c1.279-2.34,2.559-4.68,3.838-7.021C272.352,99.655,269.408,99.634,268.793,100.758L268.793,100.758z"/>
	</g>
</g>
<g>
	<g>
		<path fill="#1C1C1C" d="M261.159,114.726c-1.279,2.34-2.558,4.68-3.839,7.02c-0.787,1.439,2.156,1.461,2.771,0.337
			c1.281-2.339,2.559-4.68,3.838-7.02C264.717,113.623,261.773,113.602,261.159,114.726L261.159,114.726z"/>
	</g>
</g>
<g>
	<g>
		<path fill="#1C1C1C" d="M50.241,354.935c-2.667,0-5.333,0-8,0c-1.66,0-2.221,2.131-0.255,2.131c2.667,0,5.333,0,8,0
			C51.646,357.065,52.207,354.935,50.241,354.935L50.241,354.935z"/>
	</g>
</g>
<g>
	<g>
		<path fill="#1C1C1C" d="M112.657,354.935c-2.667,0-5.333,0-8,0c-1.66,0-2.221,2.131-0.255,2.131c2.667,0,5.333,0,8,0
			C114.062,357.065,114.623,354.935,112.657,354.935L112.657,354.935z"/>
	</g>
</g>
<g>
	<g>
		<path fill="#1C1C1C" d="M97.575,354.935c-2.667,0-5.333,0-8,0c-1.66,0-2.221,2.131-0.255,2.131c2.667,0,5.333,0,8,0
			C98.979,357.065,99.541,354.935,97.575,354.935L97.575,354.935z"/>
	</g>
</g>
<g>
	<g>
		<path fill="#1C1C1C" d="M81.657,354.935c-2.667,0-5.333,0-8,0c-1.66,0-2.221,2.131-0.255,2.131c2.667,0,5.333,0,8,0
			C83.062,357.065,83.623,354.935,81.657,354.935L81.657,354.935z"/>
	</g>
</g>
<g>
	<g>
		<path fill="#1C1C1C" d="M66.491,354.935c-2.667,0-5.333,0-8,0c-1.66,0-2.221,2.131-0.255,2.131c2.667,0,5.333,0,8,0
			C67.896,357.065,68.457,354.935,66.491,354.935L66.491,354.935z"/>
	</g>
</g>
<g>
	<g>
		<path fill="#1C1C1C" d="M438.463,353.935c-2.666,0-5.333,0-8,0c-1.659,0-2.22,2.131-0.254,2.131c2.666,0,5.333,0,8,0
			C439.869,356.065,440.429,353.935,438.463,353.935L438.463,353.935z"/>
	</g>
</g>
<g>
	<g>
		<path fill="#1C1C1C" d="M422.545,353.935c-2.666,0-5.333,0-8,0c-1.659,0-2.22,2.131-0.254,2.131c2.666,0,5.333,0,8,0
			C423.951,356.065,424.511,353.935,422.545,353.935L422.545,353.935z"/>
	</g>
</g>
</svg>
